<svg xmlns="http://www.w3.org/2000/svg" width="1280" height="760" viewBox="0 0 1280 760" role="img" aria-label="Amber Port — балтийский ресторан"><defs><linearGradient id="bg" x1="0" y1="0" x2="1" y2="1"><stop stop-color="#451a03"/><stop offset=".55" stop-color="#d97706"/><stop offset="1" stop-color="#0f172a"/></linearGradient><radialGradient id="amber" cx="35%" cy="18%" r="60%"><stop stop-color="#fed7aa" stop-opacity=".72"/><stop offset="1" stop-color="#fed7aa" stop-opacity="0"/></radialGradient></defs><rect width="1280" height="760" fill="url(#bg)"/><rect width="1280" height="760" fill="url(#amber)"/><rect y="500" width="1280" height="260" fill="#1c1007" opacity=".56"/><g><rect x="90" y="110" width="1050" height="86" rx="25" fill="#2f1b0d" opacity=".62"/><rect x="130" y="245" width="310" height="150" rx="30" fill="#f59e0b" opacity=".35"/><rect x="500" y="225" width="300" height="175" rx="32" fill="#78350f" opacity=".55"/><rect x="860" y="245" width="260" height="150" rx="30" fill="#fcd34d" opacity=".26"/><rect x="135" y="540" width="255" height="76" rx="38" fill="#92400e"/><rect x="510" y="535" width="275" height="84" rx="42" fill="#b45309"/><rect x="890" y="540" width="235" height="76" rx="38" fill="#92400e"/><circle cx="263" cy="622" r="39" fill="#1f1308"/><circle cx="650" cy="624" r="41" fill="#1f1308"/><circle cx="1008" cy="622" r="39" fill="#1f1308"/><path d="M125 466c180-26 300 28 455 0s330-31 540 6" fill="none" stroke="#fef3c7" stroke-width="8" opacity=".2"/><g fill="#fef3c7" opacity=".9"><circle cx="240" cy="92" r="16"/><circle cx="640" cy="80" r="18"/><circle cx="1015" cy="92" r="16"/></g><g stroke="#fef3c7" stroke-width="4" opacity=".68"><path d="M240 0v74"/><path d="M640 0v62"/><path d="M1015 0v74"/></g></g></svg>