<svg xmlns="http://www.w3.org/2000/svg" width="1280" height="760" viewBox="0 0 1280 760" role="img" aria-label="Aurora Room tables"><defs><linearGradient id="b" x1="0" y1="0" x2="1" y2="1"><stop stop-color="#020617"/><stop offset=".45" stop-color="#4c1d95"/><stop offset="1" stop-color="#0f766e"/></linearGradient><radialGradient id="g" cx="76%" cy="20%" r="60%"><stop stop-color="#2dd4bf" stop-opacity=".62"/><stop offset="1" stop-color="#2dd4bf" stop-opacity="0"/></radialGradient></defs><rect width="1280" height="760" fill="url(#b)"/><rect width="1280" height="760" fill="url(#g)"/><path d="M0 432 C240 372 435 400 620 350 C830 295 1000 360 1280 315 L1280 760 L0 760Z" fill="#020617" opacity=".80"/><g fill="#fff" opacity=".30"><rect x="125" y="95" width="240" height="240" rx="34"/><rect x="500" y="82" width="310" height="250" rx="36"/><rect x="850" y="112" width="280" height="210" rx="32"/></g><g fill="#020617" opacity=".84"><ellipse cx="260" cy="550" rx="140" ry="42"/><ellipse cx="650" cy="528" rx="172" ry="46"/><ellipse cx="980" cy="558" rx="130" ry="38"/></g><g fill="#fff" opacity=".36"><rect x="180" y="506" width="175" height="40" rx="20"/><rect x="545" y="486" width="220" height="44" rx="22"/><rect x="895" y="516" width="180" height="38" rx="19"/></g><g fill="#fbbf24" opacity=".82"><circle cx="240" cy="493" r="13"/><circle cx="665" cy="478" r="12"/><circle cx="985" cy="505" r="11"/></g></svg>