<svg xmlns="http://www.w3.org/2000/svg" width="1280" height="760" viewBox="0 0 1280 760" role="img" aria-label="Aurora Room private hall"><defs><linearGradient id="b" x1="0" y1="0" x2="1" y2="1"><stop stop-color="#020617"/><stop offset=".5" stop-color="#4338ca"/><stop offset="1" stop-color="#0f766e"/></linearGradient><radialGradient id="g" cx="68%" cy="18%" r="65%"><stop stop-color="#22d3ee" stop-opacity=".64"/><stop offset="1" stop-color="#22d3ee" stop-opacity="0"/></radialGradient></defs><rect width="1280" height="760" fill="url(#b)"/><rect width="1280" height="760" fill="url(#g)"/><path d="M0 440 C270 365 430 410 625 345 C840 280 1050 370 1280 305 L1280 760 L0 760Z" fill="#020617" opacity=".80"/><g fill="#fff" opacity=".28"><rect x="90" y="95" width="300" height="260" rx="38"/><rect x="460" y="62" width="350" height="285" rx="40"/><rect x="890" y="120" width="240" height="200" rx="32"/></g><g fill="#020617" opacity=".84"><ellipse cx="250" cy="555" rx="140" ry="44"/><ellipse cx="650" cy="530" rx="180" ry="48"/><ellipse cx="980" cy="565" rx="135" ry="40"/></g><g fill="#fff" opacity=".36"><rect x="170" y="508" width="170" height="42" rx="21"/><rect x="540" y="486" width="230" height="46" rx="23"/><rect x="900" y="523" width="178" height="38" rx="19"/></g><g fill="#fbbf24" opacity=".82"><circle cx="230" cy="493" r="13"/><circle cx="662" cy="477" r="12"/><circle cx="980" cy="508" r="11"/></g></svg>