<svg xmlns="http://www.w3.org/2000/svg" width="1280" height="760" viewBox="0 0 1280 760" role="img" aria-label="Aurora Room bar"><defs><linearGradient id="b" x1="0" y1="0" x2="1" y2="1"><stop stop-color="#172554"/><stop offset=".5" stop-color="#581c87"/><stop offset="1" stop-color="#115e59"/></linearGradient><radialGradient id="g" cx="34%" cy="24%" r="62%"><stop stop-color="#c084fc" stop-opacity=".68"/><stop offset="1" stop-color="#c084fc" stop-opacity="0"/></radialGradient></defs><rect width="1280" height="760" fill="url(#b)"/><rect width="1280" height="760" fill="url(#g)"/><path d="M0 420 C220 380 420 385 640 330 C870 275 1005 355 1280 310 L1280 760 L0 760Z" fill="#020617" opacity=".78"/><g fill="#fff" opacity=".30"><rect x="100" y="110" width="260" height="220" rx="32"/><rect x="470" y="70" width="320" height="270" rx="38"/><rect x="860" y="98" width="280" height="220" rx="32"/></g><g fill="#020617" opacity=".84"><ellipse cx="250" cy="560" rx="135" ry="40"/><ellipse cx="660" cy="535" rx="170" ry="46"/><ellipse cx="990" cy="560" rx="132" ry="38"/></g><g fill="#fff" opacity=".36"><rect x="170" y="515" width="170" height="40" rx="20"/><rect x="550" y="493" width="220" height="44" rx="22"/><rect x="900" y="520" width="180" height="38" rx="19"/></g><g fill="#fde68a" opacity=".82"><circle cx="230" cy="500" r="13"/><circle cx="670" cy="485" r="12"/><circle cx="990" cy="510" r="11"/></g></svg>