<svg xmlns="http://www.w3.org/2000/svg" width="1280" height="760" viewBox="0 0 1280 760" role="img" aria-label="Aurora Room lounge"><defs><linearGradient id="b" x1="0" y1="0" x2="1" y2="1"><stop stop-color="#111827"/><stop offset=".5" stop-color="#312e81"/><stop offset="1" stop-color="#14b8a6"/></linearGradient><radialGradient id="g" cx="42%" cy="28%" r="65%"><stop stop-color="#a855f7" stop-opacity=".72"/><stop offset="1" stop-color="#a855f7" stop-opacity="0"/></radialGradient></defs><rect width="1280" height="760" fill="url(#b)"/><rect width="1280" height="760" fill="url(#g)"/><path d="M0 430 C250 360 420 385 620 342 C840 295 1010 365 1280 318 L1280 760 L0 760Z" fill="#020617" opacity=".78"/><g fill="#fff" opacity=".32"><rect x="150" y="110" width="250" height="225" rx="32"/><rect x="520" y="80" width="310" height="250" rx="36"/><rect x="850" y="118" width="270" height="210" rx="32"/></g><g fill="#020617" opacity=".84"><ellipse cx="280" cy="555" rx="135" ry="40"/><ellipse cx="690" cy="535" rx="165" ry="44"/><ellipse cx="990" cy="555" rx="132" ry="38"/></g><g fill="#fff" opacity=".38"><rect x="195" y="510" width="180" height="40" rx="20"/><rect x="565" y="492" width="225" height="44" rx="22"/><rect x="900" y="515" width="182" height="38" rx="19"/></g><g fill="#f59e0b" opacity=".82"><circle cx="260" cy="496" r="13"/><circle cx="705" cy="485" r="12"/><circle cx="990" cy="506" r="11"/></g></svg>