<svg xmlns="http://www.w3.org/2000/svg" width="1280" height="760" viewBox="0 0 1280 760" role="img" aria-label="Black Sea Table — курортный ресторан"><defs><linearGradient id="bg" x1="0" y1="0" x2="1" y2="1"><stop stop-color="#075985"/><stop offset=".5" stop-color="#0e7490"/><stop offset="1" stop-color="#f8fafc"/></linearGradient><radialGradient id="sun" cx="78%" cy="18%" r="50%"><stop stop-color="#fde68a" stop-opacity=".78"/><stop offset="1" stop-color="#fde68a" stop-opacity="0"/></radialGradient></defs><rect width="1280" height="760" fill="url(#bg)"/><rect width="1280" height="760" fill="url(#sun)"/><rect y="500" width="1280" height="260" fill="#f8fafc" opacity=".55"/><path d="M0 430c160 45 260-20 420 18s290 64 470 15 260-40 390-10v105H0z" fill="#bae6fd" opacity=".35"/><g><rect x="105" y="120" width="430" height="250" rx="36" fill="#ecfeff" opacity=".45"/><rect x="600" y="120" width="520" height="250" rx="36" fill="#f0fdfa" opacity=".42"/><rect x="160" y="540" width="245" height="72" rx="36" fill="#0f766e" opacity=".82"/><rect x="500" y="535" width="285" height="82" rx="41" fill="#0284c7" opacity=".76"/><rect x="880" y="540" width="240" height="72" rx="36" fill="#0f766e" opacity=".82"/><circle cx="282" cy="620" r="38" fill="#164e63" opacity=".72"/><circle cx="642" cy="624" r="40" fill="#164e63" opacity=".66"/><circle cx="1000" cy="620" r="38" fill="#164e63" opacity=".72"/><g fill="#fef3c7" opacity=".86"><circle cx="220" cy="88" r="16"/><circle cx="610" cy="82" r="18"/><circle cx="1035" cy="88" r="16"/></g><g stroke="#fef3c7" stroke-width="4" opacity=".64"><path d="M220 0v70"/><path d="M610 0v62"/><path d="M1035 0v70"/></g></g></svg>