<svg xmlns="http://www.w3.org/2000/svg" width="1280" height="760" viewBox="0 0 1280 760" role="img" aria-label="EverJazz lounge"><defs><linearGradient id="b" x1="0" y1="0" x2="1" y2="1"><stop stop-color="#0c0a09"/><stop offset=".5" stop-color="#3a2013"/><stop offset="1" stop-color="#854d0e"/></linearGradient><radialGradient id="g" cx="28%" cy="24%" r="64%"><stop stop-color="#f59e0b" stop-opacity=".68"/><stop offset="1" stop-color="#f59e0b" stop-opacity="0"/></radialGradient></defs><rect width="1280" height="760" fill="url(#b)"/><rect width="1280" height="760" fill="url(#g)"/><path d="M0 435 C245 370 435 398 620 348 C850 285 1035 365 1280 318 L1280 760 L0 760Z" fill="#020617" opacity=".78"/><g fill="#fff" opacity=".27"><rect x="135" y="95" width="250" height="240" rx="34"/><rect x="500" y="78" width="310" height="250" rx="36"/><rect x="855" y="120" width="275" height="205" rx="32"/></g><g fill="#020617" opacity=".84"><ellipse cx="270" cy="550" rx="140" ry="42"/><ellipse cx="665" cy="530" rx="172" ry="46"/><ellipse cx="975" cy="558" rx="132" ry="38"/></g><g fill="#fff" opacity=".34"><rect x="190" y="506" width="180" height="40" rx="20"/><rect x="550" y="486" width="225" height="44" rx="22"/><rect x="890" y="516" width="182" height="38" rx="19"/></g><g fill="#fbbf24" opacity=".82"><circle cx="250" cy="493" r="13"/><circle cx="682" cy="478" r="12"/><circle cx="975" cy="505" r="11"/></g></svg>