<svg xmlns="http://www.w3.org/2000/svg" width="1280" height="760" viewBox="0 0 1280 760" role="img" aria-label="EverJazz tables"><defs><linearGradient id="b" x1="0" y1="0" x2="1" y2="1"><stop stop-color="#09090b"/><stop offset=".5" stop-color="#431407"/><stop offset="1" stop-color="#78350f"/></linearGradient><radialGradient id="g" cx="70%" cy="20%" r="62%"><stop stop-color="#fbbf24" stop-opacity=".62"/><stop offset="1" stop-color="#fbbf24" stop-opacity="0"/></radialGradient></defs><rect width="1280" height="760" fill="url(#b)"/><rect width="1280" height="760" fill="url(#g)"/><path d="M0 420 C230 370 420 385 645 330 C875 278 1030 360 1280 310 L1280 760 L0 760Z" fill="#020617" opacity=".78"/><g fill="#fff" opacity=".27"><rect x="120" y="110" width="260" height="220" rx="32"/><rect x="495" y="80" width="320" height="250" rx="36"/><rect x="860" y="105" width="270" height="220" rx="32"/></g><g fill="#020617" opacity=".84"><ellipse cx="255" cy="560" rx="135" ry="40"/><ellipse cx="660" cy="535" rx="170" ry="46"/><ellipse cx="990" cy="560" rx="132" ry="38"/></g><g fill="#fff" opacity=".34"><rect x="175" y="515" width="175" height="40" rx="20"/><rect x="550" y="493" width="220" height="44" rx="22"/><rect x="900" y="520" width="180" height="38" rx="19"/></g><g fill="#fde68a" opacity=".82"><circle cx="235" cy="500" r="13"/><circle cx="675" cy="485" r="12"/><circle cx="990" cy="510" r="11"/></g></svg>