<svg xmlns="http://www.w3.org/2000/svg" width="1280" height="760" viewBox="0 0 1280 760" role="img" aria-label="Митрич Steakhouse — тёмный стейкхаус"><defs><linearGradient id="bg" x1="0" y1="0" x2="1" y2="1"><stop stop-color="#09090b"/><stop offset=".52" stop-color="#3f2615"/><stop offset="1" stop-color="#111827"/></linearGradient><radialGradient id="fire" cx="82%" cy="62%" r="36%"><stop stop-color="#f97316" stop-opacity=".62"/><stop offset="1" stop-color="#f97316" stop-opacity="0"/></radialGradient></defs><rect width="1280" height="760" fill="url(#bg)"/><rect width="1280" height="760" fill="url(#fire)"/><rect y="500" width="1280" height="260" fill="#070707" opacity=".65"/><g><rect x="90" y="135" width="1010" height="72" rx="18" fill="#171717"/><rect x="130" y="245" width="260" height="155" rx="28" fill="#27272a"/><rect x="455" y="245" width="270" height="155" rx="28" fill="#2f1d14"/><rect x="790" y="245" width="265" height="155" rx="28" fill="#27272a"/><rect x="125" y="528" width="245" height="82" rx="41" fill="#5a3520"/><rect x="430" y="530" width="300" height="78" rx="39" fill="#7c3f1d"/><rect x="790" y="530" width="275" height="78" rx="39" fill="#4a2b1a"/><circle cx="245" cy="618" r="40" fill="#101010"/><circle cx="580" cy="618" r="40" fill="#101010"/><circle cx="930" cy="618" r="40" fill="#101010"/><path d="M105 463h1040" stroke="#f59e0b" stroke-width="8" opacity=".25"/><g fill="#fbbf24" opacity=".9"><circle cx="210" cy="92" r="16"/><circle cx="500" cy="88" r="18"/><circle cx="810" cy="88" r="18"/><circle cx="1080" cy="92" r="16"/></g><g stroke="#fbbf24" stroke-width="4" opacity=".65"><path d="M210 0v74"/><path d="M500 0v70"/><path d="M810 0v70"/><path d="M1080 0v74"/></g></g></svg>