<svg xmlns="http://www.w3.org/2000/svg" width="1280" height="760" viewBox="0 0 1280 760" role="img" aria-label="Neva Loft — светлый лофт"><defs><linearGradient id="bg" x1="0" y1="0" x2="1" y2="1"><stop stop-color="#e0f2fe"/><stop offset=".55" stop-color="#f8fafc"/><stop offset="1" stop-color="#cbd5e1"/></linearGradient><radialGradient id="sun" cx="22%" cy="18%" r="56%"><stop stop-color="#ffffff" stop-opacity=".92"/><stop offset="1" stop-color="#ffffff" stop-opacity="0"/></radialGradient></defs><rect width="1280" height="760" fill="url(#bg)"/><rect width="1280" height="760" fill="url(#sun)"/><rect y="510" width="1280" height="250" fill="#dbeafe"/><g opacity=".95"><rect x="95" y="115" width="320" height="300" rx="34" fill="#93c5fd" opacity=".55"/><rect x="465" y="115" width="320" height="300" rx="34" fill="#bfdbfe" opacity=".68"/><rect x="835" y="115" width="320" height="300" rx="34" fill="#93c5fd" opacity=".55"/><rect x="150" y="535" width="250" height="78" rx="39" fill="#475569" opacity=".82"/><rect x="520" y="535" width="245" height="78" rx="39" fill="#64748b" opacity=".78"/><rect x="875" y="535" width="240" height="78" rx="39" fill="#475569" opacity=".82"/><circle cx="275" cy="622" r="38" fill="#1e293b" opacity=".62"/><circle cx="642" cy="622" r="38" fill="#1e293b" opacity=".54"/><circle cx="995" cy="622" r="38" fill="#1e293b" opacity=".62"/><rect x="120" y="440" width="1035" height="18" rx="9" fill="#0f172a" opacity=".12"/><g fill="#0f766e" opacity=".55"><circle cx="1140" cy="475" r="44"/><rect x="1115" y="510" width="50" height="90" rx="16"/></g></g></svg>