<svg xmlns="http://www.w3.org/2000/svg" width="1280" height="760" viewBox="0 0 1280 760" role="img" aria-label="North Harbor tavern"><defs><linearGradient id="b" x1="0" y1="0" x2="1" y2="1"><stop stop-color="#071827"/><stop offset=".5" stop-color="#0f3a5a"/><stop offset="1" stop-color="#0e7490"/></linearGradient><radialGradient id="g" cx="34%" cy="20%" r="62%"><stop stop-color="#d97706" stop-opacity=".7"/><stop offset="1" stop-color="#d97706" stop-opacity="0"/></radialGradient></defs><rect width="1280" height="760" fill="url(#b)"/><rect width="1280" height="760" fill="url(#g)"/><path d="M0 430 C250 365 430 395 620 342 C850 280 1015 365 1280 312 L1280 760 L0 760Z" fill="#020617" opacity=".78"/><g fill="#fff" opacity=".30"><rect x="120" y="95" width="260" height="240" rx="32"/><rect x="480" y="70" width="310" height="260" rx="36"/><rect x="835" y="105" width="285" height="220" rx="32"/></g><g fill="#020617" opacity=".84"><ellipse cx="250" cy="555" rx="140" ry="42"/><ellipse cx="650" cy="535" rx="172" ry="46"/><ellipse cx="970" cy="555" rx="132" ry="38"/></g><g fill="#fff" opacity=".36"><rect x="170" y="510" width="180" height="40" rx="20"/><rect x="535" y="492" width="225" height="44" rx="22"/><rect x="885" y="515" width="182" height="38" rx="19"/></g><g fill="#fde68a" opacity=".82"><circle cx="230" cy="496" r="13"/><circle cx="665" cy="485" r="12"/><circle cx="970" cy="506" r="11"/></g></svg>