<svg xmlns="http://www.w3.org/2000/svg" width="1280" height="760" viewBox="0 0 1280 760" role="img" aria-label="North Harbor hall"><defs><linearGradient id="b" x1="0" y1="0" x2="1" y2="1"><stop stop-color="#020617"/><stop offset=".5" stop-color="#075985"/><stop offset="1" stop-color="#155e75"/></linearGradient><radialGradient id="g" cx="45%" cy="25%" r="62%"><stop stop-color="#fbbf24" stop-opacity=".62"/><stop offset="1" stop-color="#fbbf24" stop-opacity="0"/></radialGradient></defs><rect width="1280" height="760" fill="url(#b)"/><rect width="1280" height="760" fill="url(#g)"/><path d="M0 432 C260 365 430 398 620 342 C860 275 1030 365 1280 315 L1280 760 L0 760Z" fill="#020617" opacity=".78"/><g fill="#fff" opacity=".30"><rect x="135" y="92" width="255" height="240" rx="34"/><rect x="485" y="65" width="330" height="265" rx="38"/><rect x="870" y="115" width="250" height="205" rx="32"/></g><g fill="#020617" opacity=".84"><ellipse cx="270" cy="555" rx="140" ry="42"/><ellipse cx="665" cy="530" rx="175" ry="46"/><ellipse cx="980" cy="565" rx="135" ry="40"/></g><g fill="#fff" opacity=".36"><rect x="190" y="510" width="180" height="40" rx="20"/><rect x="552" y="486" width="225" height="44" rx="22"/><rect x="900" y="523" width="182" height="38" rx="19"/></g><g fill="#fde68a" opacity=".82"><circle cx="250" cy="493" r="13"/><circle cx="682" cy="478" r="12"/><circle cx="985" cy="512" r="11"/></g></svg>