<svg xmlns="http://www.w3.org/2000/svg" width="1280" height="760" viewBox="0 0 1280 760" role="img" aria-label="North Harbor bar"><defs><linearGradient id="b" x1="0" y1="0" x2="1" y2="1"><stop stop-color="#082f49"/><stop offset=".5" stop-color="#164e63"/><stop offset="1" stop-color="#0f766e"/></linearGradient><radialGradient id="g" cx="62%" cy="24%" r="62%"><stop stop-color="#f59e0b" stop-opacity=".64"/><stop offset="1" stop-color="#f59e0b" stop-opacity="0"/></radialGradient></defs><rect width="1280" height="760" fill="url(#b)"/><rect width="1280" height="760" fill="url(#g)"/><path d="M0 425 C240 360 435 390 625 345 C845 290 1015 355 1280 308 L1280 760 L0 760Z" fill="#020617" opacity=".78"/><g fill="#fff" opacity=".30"><rect x="105" y="110" width="300" height="225" rx="34"/><rect x="500" y="78" width="300" height="260" rx="36"/><rect x="850" y="105" width="270" height="220" rx="32"/></g><g fill="#020617" opacity=".84"><ellipse cx="270" cy="560" rx="145" ry="42"/><ellipse cx="670" cy="532" rx="172" ry="46"/><ellipse cx="980" cy="558" rx="132" ry="38"/></g><g fill="#fff" opacity=".36"><rect x="185" y="515" width="180" height="40" rx="20"/><rect x="555" y="490" width="225" height="44" rx="22"/><rect x="895" y="518" width="182" height="38" rx="19"/></g><g fill="#fde68a" opacity=".82"><circle cx="250" cy="500" r="13"/><circle cx="685" cy="482" r="12"/><circle cx="980" cy="508" r="11"/></g></svg>