<svg xmlns="http://www.w3.org/2000/svg" width="1280" height="760" viewBox="0 0 1280 760" role="img" aria-label="Пяткин — тёплый исторический ресторан"><defs><linearGradient id="bg" x1="0" y1="0" x2="1" y2="1"><stop stop-color="#3b2114"/><stop offset=".55" stop-color="#8a4b1f"/><stop offset="1" stop-color="#1c120b"/></linearGradient><radialGradient id="glow" cx="50%" cy="18%" r="65%"><stop stop-color="#fff1c2" stop-opacity=".55"/><stop offset="1" stop-color="#fff1c2" stop-opacity="0"/></radialGradient></defs><rect width="1280" height="760" fill="url(#bg)"/><rect width="1280" height="760" fill="url(#glow)"/><rect y="510" width="1280" height="250" fill="#21130b" opacity=".55"/><g opacity=".9"><rect x="90" y="120" width="290" height="270" rx="24" fill="#5b321b"/><rect x="140" y="165" width="190" height="130" rx="8" fill="#f5c16c" opacity=".35"/><rect x="450" y="110" width="650" height="76" rx="18" fill="#2a180f"/><rect x="470" y="205" width="590" height="150" rx="30" fill="#442618"/><rect x="475" y="530" width="220" height="70" rx="35" fill="#c7833d"/><rect x="735" y="530" width="250" height="70" rx="35" fill="#a9642d"/><circle cx="585" cy="600" r="38" fill="#27150d"/><circle cx="855" cy="600" r="38" fill="#27150d"/><path d="M110 500h1040" stroke="#f6b65f" stroke-width="7" opacity=".28"/><g fill="#f9d17b" opacity=".85"><circle cx="250" cy="90" r="18"/><circle cx="640" cy="78" r="20"/><circle cx="980" cy="92" r="18"/></g><g stroke="#f9d17b" stroke-width="4" opacity=".7"><path d="M250 0v72"/><path d="M640 0v58"/><path d="M980 0v72"/></g></g></svg>