<svg xmlns="http://www.w3.org/2000/svg" width="1280" height="760" viewBox="0 0 1280 760" role="img" aria-label="Siberia Station — северный ресторан"><defs><linearGradient id="bg" x1="0" y1="0" x2="1" y2="1"><stop stop-color="#0f172a"/><stop offset=".55" stop-color="#1e3a8a"/><stop offset="1" stop-color="#020617"/></linearGradient><radialGradient id="ice" cx="32%" cy="16%" r="55%"><stop stop-color="#bfdbfe" stop-opacity=".62"/><stop offset="1" stop-color="#bfdbfe" stop-opacity="0"/></radialGradient></defs><rect width="1280" height="760" fill="url(#bg)"/><rect width="1280" height="760" fill="url(#ice)"/><rect y="505" width="1280" height="255" fill="#0b1120" opacity=".72"/><g><rect x="95" y="105" width="1090" height="92" rx="28" fill="#0f172a" opacity=".6"/><rect x="135" y="245" width="290" height="160" rx="34" fill="#dbeafe" opacity=".22"/><rect x="495" y="220" width="290" height="185" rx="34" fill="#93c5fd" opacity=".25"/><rect x="855" y="245" width="290" height="160" rx="34" fill="#dbeafe" opacity=".22"/><rect x="150" y="540" width="235" height="74" rx="37" fill="#334155"/><rect x="518" y="532" width="245" height="84" rx="42" fill="#1d4ed8" opacity=".72"/><rect x="890" y="540" width="235" height="74" rx="37" fill="#334155"/><circle cx="268" cy="620" r="38" fill="#020617"/><circle cx="640" cy="623" r="40" fill="#020617"/><circle cx="1008" cy="620" r="38" fill="#020617"/><path d="M110 465h1060" stroke="#bfdbfe" stroke-width="8" opacity=".22"/><g fill="#e0f2fe" opacity=".86"><circle cx="235" cy="88" r="16"/><circle cx="640" cy="78" r="18"/><circle cx="1045" cy="88" r="16"/></g><g stroke="#e0f2fe" stroke-width="4" opacity=".6"><path d="M235 0v70"/><path d="M640 0v60"/><path d="M1045 0v70"/></g></g></svg>