<svg xmlns="http://www.w3.org/2000/svg" width="1280" height="760" viewBox="0 0 1280 760" role="img" aria-label="Ural Yard — гастробар"><defs><linearGradient id="bg" x1="0" y1="0" x2="1" y2="1"><stop stop-color="#142014"/><stop offset=".58" stop-color="#33421f"/><stop offset="1" stop-color="#1f130b"/></linearGradient><radialGradient id="ember" cx="68%" cy="22%" r="60%"><stop stop-color="#fb923c" stop-opacity=".56"/><stop offset="1" stop-color="#fb923c" stop-opacity="0"/></radialGradient></defs><rect width="1280" height="760" fill="url(#bg)"/><rect width="1280" height="760" fill="url(#ember)"/><rect y="500" width="1280" height="260" fill="#16140d" opacity=".58"/><g><rect x="80" y="110" width="1040" height="95" rx="28" fill="#1f2937" opacity=".58"/><rect x="125" y="250" width="290" height="145" rx="30" fill="#365314" opacity=".7"/><rect x="500" y="230" width="235" height="175" rx="32" fill="#431407" opacity=".7"/><rect x="815" y="250" width="285" height="145" rx="30" fill="#365314" opacity=".7"/><rect x="110" y="540" width="245" height="74" rx="37" fill="#92400e"/><rect x="445" y="535" width="275" height="82" rx="41" fill="#713f12"/><rect x="810" y="540" width="250" height="74" rx="37" fill="#92400e"/><circle cx="230" cy="620" r="38" fill="#10170d"/><circle cx="580" cy="622" r="40" fill="#10170d"/><circle cx="935" cy="620" r="38" fill="#10170d"/><path d="M115 470c210-30 390 34 570 0s335-28 470 10" fill="none" stroke="#f97316" stroke-width="8" opacity=".22"/><g fill="#fde68a" opacity=".82"><circle cx="180" cy="95" r="16"/><circle cx="610" cy="84" r="18"/><circle cx="1030" cy="95" r="16"/></g><g stroke="#fde68a" stroke-width="4" opacity=".6"><path d="M180 0v76"/><path d="M610 0v65"/><path d="M1030 0v76"/></g></g></svg>