<svg xmlns="http://www.w3.org/2000/svg" width="1280" height="720" viewBox="0 0 1280 720" role="img" aria-label="Светлый зал ресторана с окнами">
  <defs>
    <linearGradient id="wall" x1="0" y1="0" x2="1" y2="1"><stop offset="0" stop-color="#e0f2fe"/><stop offset="0.5" stop-color="#f8fafc"/><stop offset="1" stop-color="#bae6fd"/></linearGradient>
    <linearGradient id="floor" x1="0" y1="0" x2="1" y2="0"><stop offset="0" stop-color="#92400e"/><stop offset="1" stop-color="#451a03"/></linearGradient>
  </defs>
  <rect width="1280" height="720" fill="url(#wall)"/>
  <rect x="0" y="440" width="1280" height="280" fill="url(#floor)"/>
  <g opacity="0.82">
    <rect x="96" y="90" width="240" height="265" rx="22" fill="#ffffff"/>
    <rect x="390" y="82" width="240" height="274" rx="22" fill="#ffffff"/>
    <rect x="684" y="90" width="240" height="265" rx="22" fill="#ffffff"/>
    <rect x="978" y="82" width="205" height="274" rx="22" fill="#ffffff"/>
  </g>
  <g fill="#0369a1" opacity="0.18">
    <rect x="126" y="122" width="180" height="205" rx="18"/>
    <rect x="420" y="116" width="180" height="212" rx="18"/>
    <rect x="714" y="122" width="180" height="205" rx="18"/>
    <rect x="1006" y="116" width="148" height="212" rx="18"/>
  </g>
  <g fill="#0f172a" opacity="0.55">
    <ellipse cx="260" cy="535" rx="118" ry="32"/>
    <ellipse cx="620" cy="535" rx="130" ry="34"/>
    <ellipse cx="1000" cy="535" rx="124" ry="34"/>
  </g>
  <g fill="#f8fafc" opacity="0.78">
    <rect x="180" y="494" width="160" height="36" rx="18"/>
    <rect x="526" y="492" width="188" height="38" rx="19"/>
    <rect x="910" y="493" width="180" height="38" rx="19"/>
  </g>
  <text x="64" y="650" font-family="Inter, Arial, sans-serif" font-size="42" font-weight="800" fill="#0f172a">WebTavern</text>
  <text x="64" y="690" font-family="Inter, Arial, sans-serif" font-size="22" fill="#475569">демонстрационное фото светлого зала</text>
</svg>
